<?xml version="1.0" encoding="UTF-8"?>
<svg width="24px" height="24px" viewBox="0 0 24 24" version="1.1" xmlns="http://www.w3.org/2000/svg" xmlns:xlink="http://www.w3.org/1999/xlink">
    <!-- Generator: Sketch 50 (54983) - http://www.bohemiancoding.com/sketch -->
    <title>Icons/Paragraph@1x</title>
    <desc>Created with Sketch.</desc>
    <defs>
        <path d="M23,15 L15,15 C14.4477153,15 14,15.4477153 14,16 L14,16 C14,16.5522847 14.4477153,17 15,17 L23,17 C23.5522847,17 24,16.5522847 24,16 L24,16 C24,15.4477153 23.5522847,15 23,15 Z M23,7 L15,7 C14.4477153,7 14,7.44771525 14,8 L14,8 C14,8.55228475 14.4477153,9 15,9 L23,9 C23.5522847,9 24,8.55228475 24,8 L24,8 C24,7.44771525 23.5522847,7 23,7 Z M15,13 C14.4477153,13 14,12.5522847 14,12 C14,11.4477153 14.4477153,11 15,11 L23,11 C23.5522847,11 24,11.4477153 24,12 C24,12.5522847 23.5522847,13 23,13 L15,13 Z M1,22 C0.44771525,22 6.76353751e-17,21.5522847 0,21 C-6.76353751e-17,20.4477153 0.44771525,20 1,20 L23,20 C23.5522847,20 24,20.4477153 24,21 C24,21.5522847 23.5522847,22 23,22 L1,22 Z M2,6 L10,6 C11.1045695,6 12,6.8954305 12,8 L12,16 C12,17.1045695 11.1045695,18 10,18 L2,18 C0.8954305,18 1.3527075e-16,17.1045695 0,16 L0,8 C-1.3527075e-16,6.8954305 0.8954305,6 2,6 Z M0,3 C-6.76353751e-17,2.44771525 0.44771525,2 1,2 L23,2 C23.5522847,2 24,2.44771525 24,3 C24,3.55228475 23.5522847,4 23,4 L1,4 C0.44771525,4 6.76353751e-17,3.55228475 0,3 Z" id="path-1"></path>
        <filter x="-116.7%" y="-100.0%" width="333.3%" height="380.0%" filterUnits="objectBoundingBox" id="filter-3">
            <feOffset dx="0" dy="8" in="SourceAlpha" result="shadowOffsetOuter1"></feOffset>
            <feGaussianBlur stdDeviation="8" in="shadowOffsetOuter1" result="shadowBlurOuter1"></feGaussianBlur>
            <feColorMatrix values="0 0 0 0 0.650980392   0 0 0 0 0.654901961   0 0 0 0 0.854901961  0 0 0 0.32 0" type="matrix" in="shadowBlurOuter1"></feColorMatrix>
        </filter>
    </defs>
    <g id="Icons/Paragraph" stroke="none" stroke-width="1" fill="none" fill-rule="evenodd">
        <g id="Paragraph">
            <rect id="Rectangle-17" x="0" y="0" width="24" height="24"></rect>
            <mask id="mask-2" fill="white">
                <use xlink:href="#path-1"></use>
            </mask>
            <g id="Combined-Shape" fill-rule="nonzero">
                <use fill="black" fill-opacity="1" filter="url(#filter-3)" xlink:href="#path-1"></use>
                <use fill="#A6A7DA" fill-rule="evenodd" xlink:href="#path-1"></use>
            </g>
            <g id="Fill/Primary" mask="url(#mask-2)" fill="#0281F8">
                <rect x="0" y="0" width="24" height="24"></rect>
            </g>
        </g>
    </g>
</svg>