<?xml version="1.0" encoding="UTF-8"?>
<svg width="24px" height="24px" viewBox="0 0 24 24" version="1.1" xmlns="http://www.w3.org/2000/svg" xmlns:xlink="http://www.w3.org/1999/xlink">
    <!-- Generator: Sketch 50 (54983) - http://www.bohemiancoding.com/sketch -->
    <title>Icons/Divider@1x</title>
    <desc>Created with Sketch.</desc>
    <defs>
        <path d="M1,11 L23,11 C23.5522847,11 24,11.4477153 24,12 C24,12.5522847 23.5522847,13 23,13 L1,13 C0.44771525,13 6.76353751e-17,12.5522847 0,12 C-6.76353751e-17,11.4477153 0.44771525,11 1,11 Z M5,1 L19,1 C20.1045695,1 21,1.8954305 21,3 L21,7 C21,8.1045695 20.1045695,9 19,9 L5,9 C3.8954305,9 3,8.1045695 3,7 L3,3 C3,1.8954305 3.8954305,1 5,1 Z M5,15 L19,15 C20.1045695,15 21,15.8954305 21,17 L21,21 C21,22.1045695 20.1045695,23 19,23 L5,23 C3.8954305,23 3,22.1045695 3,21 L3,17 C3,15.8954305 3.8954305,15 5,15 Z" id="path-1"></path>
        <filter x="-116.7%" y="-90.9%" width="333.3%" height="354.5%" filterUnits="objectBoundingBox" id="filter-3">
            <feOffset dx="0" dy="8" in="SourceAlpha" result="shadowOffsetOuter1"></feOffset>
            <feGaussianBlur stdDeviation="8" in="shadowOffsetOuter1" result="shadowBlurOuter1"></feGaussianBlur>
            <feColorMatrix values="0 0 0 0 0.650980392   0 0 0 0 0.654901961   0 0 0 0 0.854901961  0 0 0 0.32 0" type="matrix" in="shadowBlurOuter1"></feColorMatrix>
        </filter>
    </defs>
    <g id="Icons/Divider" stroke="none" stroke-width="1" fill="none" fill-rule="evenodd">
        <g id="Group-6">
            <rect id="Rectangle-18" x="0" y="0" width="24" height="24"></rect>
            <mask id="mask-2" fill="white">
                <use xlink:href="#path-1"></use>
            </mask>
            <g id="Combined-Shape">
                <use fill="black" fill-opacity="1" filter="url(#filter-3)" xlink:href="#path-1"></use>
                <use fill="#A6A7DA" fill-rule="evenodd" xlink:href="#path-1"></use>
            </g>
            <g id="Fill/Primary" mask="url(#mask-2)" fill="#0281F8">
                <rect x="0" y="0" width="24" height="24"></rect>
            </g>
        </g>
    </g>
</svg>