<?xml version="1.0" encoding="UTF-8"?>
<svg width="40px" height="40px" viewBox="0 0 40 40" version="1.1" xmlns="http://www.w3.org/2000/svg" xmlns:xlink="http://www.w3.org/1999/xlink">
    <!-- Generator: Sketch 50 (54983) - http://www.bohemiancoding.com/sketch -->
    <title>Icons/Importlink@1x</title>
    <desc>Created with Sketch.</desc>
    <defs>
        <rect id="path-1" x="0" y="0" width="40" height="40"></rect>
        <filter x="-70.0%" y="-50.0%" width="240.0%" height="240.0%" filterUnits="objectBoundingBox" id="filter-2">
            <feOffset dx="0" dy="8" in="SourceAlpha" result="shadowOffsetOuter1"></feOffset>
            <feGaussianBlur stdDeviation="8" in="shadowOffsetOuter1" result="shadowBlurOuter1"></feGaussianBlur>
            <feColorMatrix values="0 0 0 0 0   0 0 0 0 0   0 0 0 0 0  0 0 0 0.02 0" type="matrix" in="shadowBlurOuter1"></feColorMatrix>
        </filter>
        <path d="M11.9,20 C11.9,18.29 13.29,16.9 15,16.9 L19,16.9 L19,15 L15,15 C12.24,15 10,17.24 10,20 C10,22.76 12.24,25 15,25 L19,25 L19,23.1 L15,23.1 C13.29,23.1 11.9,21.71 11.9,20 Z M16,21 L24,21 L24,19 L16,19 L16,21 Z M25,15 L21,15 L21,16.9 L25,16.9 C26.71,16.9 28.1,18.29 28.1,20 C28.1,21.71 26.71,23.1 25,23.1 L21,23.1 L21,25 L25,25 C27.76,25 30,22.76 30,20 C30,17.24 27.76,15 25,15 Z" id="path-3"></path>
        <filter x="-140.0%" y="-200.0%" width="380.0%" height="660.0%" filterUnits="objectBoundingBox" id="filter-5">
            <feOffset dx="0" dy="8" in="SourceAlpha" result="shadowOffsetOuter1"></feOffset>
            <feGaussianBlur stdDeviation="8" in="shadowOffsetOuter1" result="shadowBlurOuter1"></feGaussianBlur>
            <feColorMatrix values="0 0 0 0 0.650980392   0 0 0 0 0.654901961   0 0 0 0 0.854901961  0 0 0 0.32 0" type="matrix" in="shadowBlurOuter1"></feColorMatrix>
        </filter>
    </defs>
    <g id="Icons/Importlink" stroke="none" stroke-width="1" fill="none" fill-rule="evenodd">
        <g id="Upload-Copy-2">
            <g id="Rectangle-12">
                <use fill="black" fill-opacity="1" filter="url(#filter-2)" xlink:href="#path-1"></use>
                <use fill="#FFFFFF" fill-rule="evenodd" xlink:href="#path-1"></use>
            </g>
            <g id="ic-insert-link-24px">
                <polygon id="Shape" points="8 8 32 8 32 32 8 32"></polygon>
                <mask id="mask-4" fill="white">
                    <use xlink:href="#path-3"></use>
                </mask>
                <g id="Shape" fill-rule="nonzero">
                    <use fill="black" fill-opacity="1" filter="url(#filter-5)" xlink:href="#path-3"></use>
                    <use fill="#A6A7DA" fill-rule="evenodd" xlink:href="#path-3"></use>
                </g>
                <g id="Fill/Primary" mask="url(#mask-4)" fill="#0281F8">
                    <rect x="0" y="0" width="40" height="40"></rect>
                </g>
            </g>
        </g>
    </g>
</svg>