<?xml version="1.0" encoding="UTF-8"?>
<svg width="24px" height="24px" viewBox="0 0 24 24" version="1.1" xmlns="http://www.w3.org/2000/svg" xmlns:xlink="http://www.w3.org/1999/xlink">
    <!-- Generator: Sketch 50 (54983) - http://www.bohemiancoding.com/sketch -->
    <title>Icons/Paragraph_normal@1x</title>
    <desc>Created with Sketch.</desc>
    <defs>
        <path d="M4,18 L8,18 C8.55228475,18 9,17.5522847 9,17 L9,17 C9,16.4477153 8.55228475,16 8,16 L4,16 C3.44771525,16 3,16.4477153 3,17 L3,17 C3,17.5522847 3.44771525,18 4,18 Z M3,7 L3,7 C3,7.55228475 3.44771525,8 4,8 L20,8 C20.5522847,8 21,7.55228475 21,7 L21,7 C21,6.44771525 20.5522847,6 20,6 L4,6 C3.44771525,6 3,6.44771525 3,7 Z M4,13 L14,13 C14.5522847,13 15,12.5522847 15,12 L15,12 C15,11.4477153 14.5522847,11 14,11 L4,11 C3.44771525,11 3,11.4477153 3,12 L3,12 C3,12.5522847 3.44771525,13 4,13 Z" id="path-1"></path>
        <filter x="-155.6%" y="-166.7%" width="411.1%" height="566.7%" filterUnits="objectBoundingBox" id="filter-3">
            <feOffset dx="0" dy="8" in="SourceAlpha" result="shadowOffsetOuter1"></feOffset>
            <feGaussianBlur stdDeviation="8" in="shadowOffsetOuter1" result="shadowBlurOuter1"></feGaussianBlur>
            <feColorMatrix values="0 0 0 0 0.650980392   0 0 0 0 0.654901961   0 0 0 0 0.854901961  0 0 0 0.32 0" type="matrix" in="shadowBlurOuter1"></feColorMatrix>
        </filter>
    </defs>
    <g id="Icons/Paragraph_normal" stroke="none" stroke-width="1" fill="none" fill-rule="evenodd">
        <g id="Paragraph_normal">
            <polygon id="Shape" points="0 0 24 0 24 24 0 24"></polygon>
            <mask id="mask-2" fill="white">
                <use xlink:href="#path-1"></use>
            </mask>
            <g id="Shape" fill-rule="nonzero">
                <use fill="black" fill-opacity="1" filter="url(#filter-3)" xlink:href="#path-1"></use>
                <use fill="#A6A7DA" fill-rule="evenodd" xlink:href="#path-1"></use>
            </g>
            <g id="Fill/Primary" mask="url(#mask-2)" fill="#0281F8">
                <rect x="0" y="0" width="24" height="24"></rect>
            </g>
        </g>
    </g>
</svg>