<?xml version="1.0" encoding="UTF-8"?>
<svg width="24px" height="24px" viewBox="0 0 24 24" version="1.1" xmlns="http://www.w3.org/2000/svg" xmlns:xlink="http://www.w3.org/1999/xlink">
    <!-- Generator: Sketch 50 (54983) - http://www.bohemiancoding.com/sketch -->
    <title>Icons/Delete@1x</title>
    <desc>Created with Sketch.</desc>
    <defs>
        <path d="M6,19 C6,20.1 6.9,21 8,21 L16,21 C17.1,21 18,20.1 18,19 L18,7 L6,7 L6,19 Z M8.46,11.88 L9.87,10.47 L12,12.59 L14.12,10.47 L15.53,11.88 L13.41,14 L15.53,16.12 L14.12,17.53 L12,15.41 L9.88,17.53 L8.47,16.12 L10.59,14 L8.46,11.88 Z M15.5,4 L14.5,3 L9.5,3 L8.5,4 L5,4 L5,6 L19,6 L19,4 L15.5,4 Z" id="path-1"></path>
        <filter x="-200.0%" y="-111.1%" width="500.0%" height="411.1%" filterUnits="objectBoundingBox" id="filter-3">
            <feOffset dx="0" dy="8" in="SourceAlpha" result="shadowOffsetOuter1"></feOffset>
            <feGaussianBlur stdDeviation="8" in="shadowOffsetOuter1" result="shadowBlurOuter1"></feGaussianBlur>
            <feColorMatrix values="0 0 0 0 0.650980392   0 0 0 0 0.654901961   0 0 0 0 0.854901961  0 0 0 0.32 0" type="matrix" in="shadowBlurOuter1"></feColorMatrix>
        </filter>
    </defs>
    <g id="Icons/Delete" stroke="none" stroke-width="1" fill="none" fill-rule="evenodd">
        <g id="Delete">
            <rect id="Rectangle-4" x="0" y="0" width="24" height="24"></rect>
            <mask id="mask-2" fill="white">
                <use xlink:href="#path-1"></use>
            </mask>
            <g id="Shape" fill-rule="nonzero">
                <use fill="black" fill-opacity="1" filter="url(#filter-3)" xlink:href="#path-1"></use>
                <use fill="#A6A7DA" fill-rule="evenodd" xlink:href="#path-1"></use>
            </g>
            <g id="Fill/Primary" mask="url(#mask-2)" fill="#0281F8">
                <rect x="0" y="0" width="24" height="24"></rect>
            </g>
        </g>
    </g>
</svg>