<?xml version="1.0" encoding="UTF-8"?>
<svg width="24px" height="24px" viewBox="0 0 24 24" version="1.1" xmlns="http://www.w3.org/2000/svg" xmlns:xlink="http://www.w3.org/1999/xlink">
    <!-- Generator: Sketch 50 (54983) - http://www.bohemiancoding.com/sketch -->
    <title>Icons/Paragraph_l@1x</title>
    <desc>Created with Sketch.</desc>
    <defs>
        <path d="M19,11 L16,11 C15.4477153,11 15,11.4477153 15,12 L15,12 C15,12.5522847 15.4477153,13 16,13 L19,13 C19.5522847,13 20,12.5522847 20,12 L20,12 C20,11.4477153 19.5522847,11 19,11 Z M16,17 L21,17 C21.5522847,17 22,16.5522847 22,16 L22,16 C22,15.4477153 21.5522847,15 21,15 L16,15 C15.4477153,15 15,15.4477153 15,16 L15,16 C15,16.5522847 15.4477153,17 16,17 Z M15,8 C15,7.44771525 15.4477153,7 16,7 L23,7 C23.5522847,7 24,7.44771525 24,8 C24,8.55228475 23.5522847,9 23,9 L16,9 C15.4477153,9 15,8.55228475 15,8 Z M3,6 L11,6 C12.1045695,6 13,6.8954305 13,8 L13,16 C13,17.1045695 12.1045695,18 11,18 L3,18 C1.8954305,18 1,17.1045695 1,16 L1,8 C1,6.8954305 1.8954305,6 3,6 Z" id="path-1"></path>
        <filter x="-121.7%" y="-166.7%" width="343.5%" height="566.7%" filterUnits="objectBoundingBox" id="filter-3">
            <feOffset dx="0" dy="8" in="SourceAlpha" result="shadowOffsetOuter1"></feOffset>
            <feGaussianBlur stdDeviation="8" in="shadowOffsetOuter1" result="shadowBlurOuter1"></feGaussianBlur>
            <feColorMatrix values="0 0 0 0 0.650980392   0 0 0 0 0.654901961   0 0 0 0 0.854901961  0 0 0 0.32 0" type="matrix" in="shadowBlurOuter1"></feColorMatrix>
        </filter>
    </defs>
    <g id="Icons/Paragraph_l" stroke="none" stroke-width="1" fill="none" fill-rule="evenodd">
        <g id="Paragraph_l" transform="translate(12.000000, 12.000000) scale(-1, 1) translate(-12.000000, -12.000000) ">
            <rect id="Rectangle-16" x="0" y="0" width="24" height="24"></rect>
            <mask id="mask-2" fill="white">
                <use xlink:href="#path-1"></use>
            </mask>
            <g id="Combined-Shape" fill-rule="nonzero">
                <use fill="black" fill-opacity="1" filter="url(#filter-3)" xlink:href="#path-1"></use>
                <use fill="#A6A7DA" fill-rule="evenodd" xlink:href="#path-1"></use>
            </g>
            <g id="Fill/Primary" mask="url(#mask-2)" fill="#0281F8">
                <rect x="0" y="0" width="24" height="24"></rect>
            </g>
        </g>
    </g>
</svg>