<?xml version="1.0" encoding="UTF-8"?>
<svg width="24px" height="24px" viewBox="0 0 24 24" version="1.1" xmlns="http://www.w3.org/2000/svg" xmlns:xlink="http://www.w3.org/1999/xlink">
    <!-- Generator: Sketch 50 (54983) - http://www.bohemiancoding.com/sketch -->
    <title>Icons/Video@1x</title>
    <desc>Created with Sketch.</desc>
    <defs>
        <path d="M17,10.5 L17,7 C17,6.45 16.55,6 16,6 L4,6 C3.45,6 3,6.45 3,7 L3,17 C3,17.55 3.45,18 4,18 L16,18 C16.55,18 17,17.55 17,17 L17,13.5 L21,17.5 L21,6.5 L17,10.5 Z" id="path-1"></path>
        <filter x="-155.6%" y="-166.7%" width="411.1%" height="566.7%" filterUnits="objectBoundingBox" id="filter-3">
            <feOffset dx="0" dy="8" in="SourceAlpha" result="shadowOffsetOuter1"></feOffset>
            <feGaussianBlur stdDeviation="8" in="shadowOffsetOuter1" result="shadowBlurOuter1"></feGaussianBlur>
            <feColorMatrix values="0 0 0 0 0.650980392   0 0 0 0 0.654901961   0 0 0 0 0.854901961  0 0 0 0.32 0" type="matrix" in="shadowBlurOuter1"></feColorMatrix>
        </filter>
    </defs>
    <g id="Icons/Video" stroke="none" stroke-width="1" fill="none" fill-rule="evenodd">
        <g id="Video">
            <polygon id="Shape" points="0 0 24 0 24 24 0 24"></polygon>
            <mask id="mask-2" fill="white">
                <use xlink:href="#path-1"></use>
            </mask>
            <g id="Shape" fill-rule="nonzero">
                <use fill="black" fill-opacity="1" filter="url(#filter-3)" xlink:href="#path-1"></use>
                <use fill="#A6A7DA" fill-rule="evenodd" xlink:href="#path-1"></use>
            </g>
            <g id="Fill/Primary" mask="url(#mask-2)" fill="#0281F8">
                <rect x="0" y="0" width="24" height="24"></rect>
            </g>
        </g>
    </g>
</svg>